<?xml version="1.0" standalone="no"?>
<!DOCTYPE svg PUBLIC "-//W3C//DTD SVG 20010904//EN"
 "http://www.w3.org/TR/2001/REC-SVG-20010904/DTD/svg10.dtd">
<svg version="1.0" xmlns="http://www.w3.org/2000/svg"
 width="250.000000pt" height="250.000000pt" viewBox="0 0 250.000000 250.000000"
 preserveAspectRatio="xMidYMid meet">
<metadata>
Created by potrace 1.13, written by Peter Selinger 2001-2015
</metadata>
<g transform="translate(0.000000,250.000000) scale(0.100000,-0.100000)"
fill="#000000" stroke="none">
<path d="M0 2200 l0 -300 300 0 300 0 0 300 0 300 -300 0 -300 0 0 -300z m520
-5 l0 -215 -215 0 -215 0 0 215 0 215 215 0 215 0 0 -215z"/>
<path d="M170 2200 l0 -130 130 0 130 0 0 130 0 130 -130 0 -130 0 0 -130z"/>
<path d="M690 2455 l0 -45 45 0 45 0 0 45 0 45 -45 0 -45 0 0 -45z"/>
<path d="M950 2455 l0 -45 -45 0 -45 0 0 -85 0 -85 -40 0 -40 0 0 45 0 45 -45
0 -45 0 0 -45 0 -45 45 0 45 0 0 -40 0 -40 40 0 40 0 0 -45 0 -45 45 0 45 0 0
-45 0 -45 -45 0 -45 0 0 -85 0 -85 45 0 45 0 0 -45 0 -45 -45 0 -45 0 0 -125
0 -125 45 0 45 0 0 -45 0 -45 40 0 40 0 0 -85 0 -85 45 0 45 0 0 85 0 85 -45
0 -45 0 0 45 0 45 -40 0 -40 0 0 85 0 85 85 0 85 0 0 40 0 40 -45 0 -45 0 0
90 0 90 45 0 45 0 0 40 0 40 45 0 45 0 0 -85 0 -85 40 0 40 0 0 -45 0 -45 45
0 45 0 0 -40 0 -40 -85 0 -85 0 0 -45 0 -45 85 0 85 0 0 45 0 45 85 0 85 0 0
-45 0 -45 85 0 85 0 0 45 0 45 45 0 45 0 0 -45 0 -45 45 0 45 0 0 85 0 85 -90
0 -90 0 0 -40 0 -40 -85 0 -85 0 0 85 0 85 45 0 45 0 0 175 0 175 85 0 85 0 0
85 0 85 -85 0 -85 0 0 -45 0 -45 -45 0 -45 0 0 45 0 45 -40 0 -40 0 0 40 0 40
40 0 40 0 0 45 0 45 -40 0 -40 0 0 -45 0 -45 -45 0 -45 0 0 45 0 45 -45 0 -45
0 0 -45 0 -45 45 0 45 0 0 -40 0 -40 45 0 45 0 0 -85 0 -85 40 0 40 0 0 -175
0 -175 -40 0 -40 0 0 130 0 130 -45 0 -45 0 0 -130 0 -130 -45 0 -45 0 0 85 0
85 -40 0 -40 0 0 260 0 260 -45 0 -45 0 0 -130 0 -130 -45 0 -45 0 0 130 0
130 -40 0 -40 0 0 -45z m0 -255 l0 -40 40 0 40 0 0 -45 0 -45 -40 0 -40 0 0
45 0 45 -45 0 -45 0 0 40 0 40 45 0 45 0 0 -40z m80 -260 l0 -40 -40 0 -40 0
0 40 0 40 40 0 40 0 0 -40z"/>
<path d="M1640 2455 l0 -45 40 0 40 0 0 45 0 45 -40 0 -40 0 0 -45z"/>
<path d="M1900 2200 l0 -300 300 0 300 0 0 300 0 300 -300 0 -300 0 0 -300z
m510 -5 l0 -215 -215 0 -215 0 0 215 0 215 215 0 215 0 0 -215z"/>
<path d="M2070 2200 l0 -130 130 0 130 0 0 130 0 130 -130 0 -130 0 0 -130z"/>
<path d="M690 1985 l0 -85 45 0 45 0 0 85 0 85 -45 0 -45 0 0 -85z"/>
<path d="M1720 1985 l0 -85 45 0 45 0 0 85 0 85 -45 0 -45 0 0 -85z"/>
<path d="M0 1420 l0 -390 85 0 85 0 0 -40 0 -40 -85 0 -85 0 0 -45 0 -45 85 0
85 0 0 45 0 45 45 0 45 0 0 -45 0 -45 40 0 40 0 0 -85 0 -85 45 0 45 0 0 85 0
85 85 0 85 0 0 -40 0 -40 -40 0 -40 0 0 -45 0 -45 85 0 85 0 0 -85 0 -85 45 0
45 0 0 -130 0 -130 -45 0 -45 0 0 -45 0 -45 45 0 45 0 0 -40 0 -40 -45 0 -45
0 0 -45 0 -45 45 0 45 0 0 45 0 45 85 0 85 0 0 -45 0 -45 130 0 130 0 0 85 0
85 130 0 130 0 0 85 0 85 40 0 40 0 0 45 0 45 45 0 45 0 0 -85 0 -85 -45 0
-45 0 0 -85 0 -85 85 0 85 0 0 -45 0 -45 45 0 45 0 0 45 0 45 -45 0 -45 0 0
40 0 40 130 0 130 0 0 -40 0 -40 -40 0 -40 0 0 -45 0 -45 130 0 130 0 0 45 0
45 -45 0 -45 0 0 40 0 40 85 0 85 0 0 45 0 45 45 0 45 0 0 -45 0 -45 85 0 85
0 0 85 0 85 -45 0 -45 0 0 45 0 45 45 0 45 0 0 300 0 300 -45 0 -45 0 0 90 0
90 45 0 45 0 0 130 0 130 -45 0 -45 0 0 -45 0 -45 -85 0 -85 0 0 85 0 85 -40
0 -40 0 0 -130 0 -130 -45 0 -45 0 0 260 0 260 -45 0 -45 0 0 -170 0 -170 -40
0 -40 0 0 -45 0 -45 40 0 40 0 0 -45 0 -45 -85 0 -85 0 0 90 0 90 -85 0 -85 0
0 -45 0 -45 -45 0 -45 0 0 -45 0 -45 -40 0 -40 0 0 45 0 45 -45 0 -45 0 0 45
0 45 -85 0 -85 0 0 -130 0 -130 85 0 85 0 0 -90 0 -90 -85 0 -85 0 0 45 0 45
-45 0 -45 0 0 -45 0 -45 45 0 45 0 0 -85 0 -85 130 0 130 0 0 175 0 175 40 0
40 0 0 -45 0 -45 45 0 45 0 0 -85 0 -85 -45 0 -45 0 0 -45 0 -45 85 0 85 0 0
45 0 45 45 0 45 0 0 -45 0 -45 45 0 45 0 0 45 0 45 -45 0 -45 0 0 85 0 85 -45
0 -45 0 0 45 0 45 90 0 90 0 0 -90 0 -90 40 0 40 0 0 -40 0 -40 45 0 45 0 0
-45 0 -45 -45 0 -45 0 0 -40 0 -40 -170 0 -170 0 0 -45 0 -45 40 0 40 0 0 -85
0 -85 -85 0 -85 0 0 40 0 40 -40 0 -40 0 0 45 0 45 40 0 40 0 0 45 0 45 -85 0
-85 0 0 -90 0 -90 -45 0 -45 0 0 45 0 45 -40 0 -40 0 0 45 0 45 -45 0 -45 0 0
85 0 85 -45 0 -45 0 0 85 0 85 -85 0 -85 0 0 130 0 130 -130 0 -130 0 0 45 0
45 -40 0 -40 0 0 40 0 40 85 0 85 0 0 -40 0 -40 45 0 45 0 0 125 0 125 -45 0
-45 0 0 45 0 45 -85 0 -85 0 0 -45 0 -45 -90 0 -90 0 0 -85 0 -85 -40 0 -40 0
0 45 0 45 -45 0 -45 0 0 -45 0 -45 45 0 45 0 0 -85 0 -85 40 0 40 0 0 -85 0
-85 45 0 45 0 0 -45 0 -45 -85 0 -85 0 0 85 0 85 -45 0 -45 0 0 90 0 90 -40 0
-40 0 0 170 0 170 -45 0 -45 0 0 -390z m600 260 l0 -40 -40 0 -40 0 0 40 0 40
40 0 40 0 0 -40z m-170 -215 l0 -85 85 0 85 0 0 -45 0 -45 -85 0 -85 0 0 45 0
45 -45 0 -45 0 0 85 0 85 45 0 45 0 0 -85z m950 -130 l0 -45 45 0 45 0 0 -40
0 -40 -45 0 -45 0 0 40 0 40 -45 0 -45 0 0 45 0 45 45 0 45 0 0 -45z m340 0
l0 -45 -40 0 -40 0 0 45 0 45 40 0 40 0 0 -45z m-1550 -85 l0 -40 -40 0 -40 0
0 40 0 40 40 0 40 0 0 -40z m610 -45 l0 -85 -45 0 -45 0 0 85 0 85 45 0 45 0
0 -85z m1630 45 l0 -40 -40 0 -40 0 0 -90 0 -90 40 0 40 0 0 -125 0 -125 -40
0 -40 0 0 -45 0 -45 40 0 40 0 0 -130 0 -130 -40 0 -40 0 0 -45 0 -45 40 0 40
0 0 -40 0 -40 -40 0 -40 0 0 40 0 40 -45 0 -45 0 0 -40 0 -40 -40 0 -40 0 0
130 0 130 40 0 40 0 0 40 0 40 45 0 45 0 0 45 0 45 -45 0 -45 0 0 85 0 85 -40
0 -40 0 0 -40 0 -40 -45 0 -45 0 0 40 0 40 45 0 45 0 0 45 0 45 -45 0 -45 0 0
40 0 40 -45 0 -45 0 0 90 0 90 45 0 45 0 0 -45 0 -45 45 0 45 0 0 -45 0 -45
40 0 40 0 0 90 0 90 -40 0 -40 0 0 40 0 40 125 0 125 0 0 -40z m-1810 -85 l0
-45 -40 0 -40 0 0 -45 0 -45 130 0 130 0 0 -40 0 -40 40 0 40 0 0 40 0 40 45
0 45 0 0 -40 0 -40 -45 0 -45 0 0 -45 0 -45 -40 0 -40 0 0 -40 0 -40 85 0 85
0 0 40 0 40 40 0 40 0 0 -40 0 -40 -40 0 -40 0 0 -45 0 -45 40 0 40 0 0 -45 0
-45 45 0 45 0 0 45 0 45 45 0 45 0 0 -45 0 -45 40 0 40 0 0 -85 0 -85 45 0 45
0 0 85 0 85 45 0 45 0 0 -40 0 -40 40 0 40 0 0 -45 0 -45 -85 0 -85 0 0 -85 0
-85 -85 0 -85 0 0 40 0 40 40 0 40 0 0 45 0 45 -85 0 -85 0 0 45 0 45 -170 0
-170 0 0 40 0 40 40 0 40 0 0 45 0 45 -40 0 -40 0 0 45 0 45 -45 0 -45 0 0 85
0 85 -85 0 -85 0 0 40 0 40 -45 0 -45 0 0 -40 0 -40 -45 0 -45 0 0 40 0 40 45
0 45 0 0 45 0 45 45 0 45 0 0 45 0 45 40 0 40 0 0 -45z m-340 -90 l0 -45 -45
0 -45 0 0 45 0 45 45 0 45 0 0 -45z m1810 -515 l0 -130 -130 0 -130 0 0 130 0
130 130 0 130 0 0 -130z m-1120 -175 l0 -45 -45 0 -45 0 0 45 0 45 45 0 45 0
0 -45z m170 -85 l0 -40 -45 0 -45 0 0 -85 0 -85 -40 0 -40 0 0 85 0 85 40 0
40 0 0 40 0 40 45 0 45 0 0 -40z m690 0 l0 -40 -45 0 -45 0 0 -45 0 -45 -40 0
-40 0 0 45 0 45 40 0 40 0 0 40 0 40 45 0 45 0 0 -40z m170 0 l0 -40 -40 0
-40 0 0 40 0 40 40 0 40 0 0 -40z"/>
<path d="M2240 945 l0 -85 45 0 45 0 0 85 0 85 -45 0 -45 0 0 -85z"/>
<path d="M1900 560 l0 -40 40 0 40 0 0 40 0 40 -40 0 -40 0 0 -40z"/>
<path d="M170 1765 l0 -45 45 0 45 0 0 45 0 45 -45 0 -45 0 0 -45z"/>
<path d="M2240 1765 l0 -45 45 0 45 0 0 45 0 45 -45 0 -45 0 0 -45z"/>
<path d="M2410 1680 l0 -130 45 0 45 0 0 130 0 130 -45 0 -45 0 0 -130z"/>
<path d="M0 735 l0 -45 85 0 85 0 0 45 0 45 -85 0 -85 0 0 -45z"/>
<path d="M0 300 l0 -300 300 0 300 0 0 300 0 300 -300 0 -300 0 0 -300z m520
5 l0 -215 -215 0 -215 0 0 215 0 215 215 0 215 0 0 -215z"/>
<path d="M170 300 l0 -130 130 0 130 0 0 130 0 130 -130 0 -130 0 0 -130z"/>
<path d="M1290 45 l0 -45 45 0 45 0 0 45 0 45 -45 0 -45 0 0 -45z"/>
<path d="M2410 45 l0 -45 45 0 45 0 0 45 0 45 -45 0 -45 0 0 -45z"/>
</g>
</svg>
